# xmcd
# 
# Track frame offsets:
#     150
#     2879
#     19912
#     30488
#     44976
#     61071
#     75994
# 
# Disc length: 1062
# 
# Revision: 0
# Processed by: cddbd v1.5.2PL0 Copyright (c) Steve Scherf et al.
# Submitted via: fre:ac v1.0.27
# 
DISCID=4d042407
DTITLE=Dawson James - Our Country
DYEAR=2012
DGENRE=Country
TTITLE0=Intro
TTITLE1=Take Back Our Country
TTITLE2=Workin' My Life Away
TTITLE3=Make Believe Mexico Weekend
TTITLE4=I'm An American
TTITLE5=Leftover Love
TTITLE6=Outro
EXTD=
EXTT0=
EXTT1=
EXTT2=
EXTT3=
EXTT4=
EXTT5=
EXTT6=
PLAYORDER=
